RBDS021runT35_grf
version=1
nRows=27
nColumns=19
inDegrees=no
endheader
time	ground_force_r_vx	ground_force_r_vy	ground_force_r_vz	ground_force_r_px	ground_force_r_py	ground_force_r_pz	ground_force_r_mx	ground_force_r_my	ground_force_r_mz	ground_force_l_vx	ground_force_l_vy	ground_force_l_vz	ground_force_l_px	ground_force_l_py	ground_force_l_pz	ground_force_l_mx	ground_force_l_my	ground_force_l_mz
      0.00000000	   -219.96477289	    558.49273819	    -92.76303910	      2.24365572	      0.00000000	      1.06179214	     -0.00000000	     79.68539357	      0.00000000	      0.00000000	      0.00000000	      0.00000000	      0.00000000	      0.00000000	      0.00000000	      0.00000000	      0.00000000	      0.00000000
      0.00100000	   -218.45426273	    589.30965497	    -87.22191862	      2.24232089	      0.00000000	      1.06134771	      0.00000000	     76.77429071	      0.00000000	      0.00000000	      0.00000000	      0.00000000	      0.00000000	      0.00000000	      0.00000000	      0.00000000	      0.00000000	      0.00000000
      0.00200000	   -216.94375258	    620.12657175	    -81.68079814	      2.24098606	      0.00000000	      1.06090328	      0.00000000	     73.86318785	      0.00000000	      0.00000000	      0.00000000	      0.00000000	      0.00000000	      0.00000000	      0.00000000	      0.00000000	      0.00000000	      0.00000000
      0.00300000	   -215.43324242	    650.94348853	    -76.13967766	      2.23965123	      0.00000000	      1.06045884	      0.00000000	     70.95208498	      0.00000000	      0.00000000	      0.00000000	      0.00000000	      0.00000000	      0.00000000	      0.00000000	      0.00000000	      0.00000000	      0.00000000
      0.00400000	   -213.97999400	    681.60626582	    -70.72754166	      2.23830354	      0.00000000	      1.06002264	      0.00000000	     68.08084627	      0.00000000	      0.00000000	      0.00000000	      0.00000000	      0.00000000	      0.00000000	      0.00000000	      0.00000000	      0.00000000	      0.00000000
      0.00500000	   -212.55537644	    712.19197335	    -65.37989790	      2.23694943	      0.00000000	      1.05959056	      0.00000000	     65.22953962	      0.00000000	      0.00000000	      0.00000000	      0.00000000	      0.00000000	      0.00000000	      0.00000000	      0.00000000	      0.00000000	      0.00000000
      0.00600000	   -211.13075888	    742.77768088	    -60.03225414	      2.23559531	      0.00000000	      1.05915847	      0.00000000	     62.37823298	      0.00000000	      0.00000000	      0.00000000	      0.00000000	      0.00000000	      0.00000000	      0.00000000	      0.00000000	      0.00000000	      0.00000000
      0.00700000	   -209.74786119	    773.18509900	    -54.79300199	      2.23422949	      0.00000000	      1.05873291	      0.00000000	     59.56426082	      0.00000000	      0.00000000	      0.00000000	      0.00000000	      0.00000000	      0.00000000	      0.00000000	      0.00000000	      0.00000000	      0.00000000
      0.00800000	   -208.44840327	    803.23593828	    -49.77053304	      2.23284028	      0.00000000	      1.05832040	      0.00000000	     56.82495764	      0.00000000	      0.00000000	      0.00000000	      0.00000000	      0.00000000	      0.00000000	      0.00000000	      0.00000000	      0.00000000	      0.00000000
      0.00900000	   -207.14894534	    833.28677756	    -44.74806409	      2.23145106	      0.00000000	      1.05790789	      0.00000000	     54.08565446	      0.00000000	      0.00000000	      0.00000000	      0.00000000	      0.00000000	      0.00000000	      0.00000000	      0.00000000	      0.00000000	      0.00000000
      0.01000000	   -205.84948742	    863.33761684	    -39.72559514	      2.23006185	      0.00000000	      1.05749538	      0.00000000	     51.34635128	      0.00000000	      0.00000000	      0.00000000	      0.00000000	      0.00000000	      0.00000000	      0.00000000	      0.00000000	      0.00000000	      0.00000000
      0.01100000	   -204.70087509	    892.56798352	    -35.15070014	      2.22862121	      0.00000000	      1.05710951	      0.00000000	     48.76647353	      0.00000000	      0.00000000	      0.00000000	      0.00000000	      0.00000000	      0.00000000	      0.00000000	      0.00000000	      0.00000000	      0.00000000
      0.01200000	   -203.55226277	    921.79835019	    -30.57580514	      2.22718057	      0.00000000	      1.05672364	      0.00000000	     46.18659578	      0.00000000	      0.00000000	      0.00000000	      0.00000000	      0.00000000	      0.00000000	      0.00000000	      0.00000000	      0.00000000	      0.00000000
      0.01300000	   -202.40365044	    951.02871687	    -26.00091014	      2.22573993	      0.00000000	      1.05633777	      0.00000000	     43.60671802	      0.00000000	      0.00000000	      0.00000000	      0.00000000	      0.00000000	      0.00000000	      0.00000000	      0.00000000	      0.00000000	      0.00000000
      0.01400000	   -201.36172587	    979.53814638	    -21.79676388	      2.22425429	      0.00000000	      1.05597414	      0.00000000	     41.16027893	      0.00000000	      0.00000000	      0.00000000	      0.00000000	      0.00000000	      0.00000000	      0.00000000	      0.00000000	      0.00000000	      0.00000000
      0.01500000	   -200.37314517	   1007.68710730	    -17.77799199	      2.22274615	      0.00000000	      1.05562163	      0.00000000	     38.78055918	      0.00000000	      0.00000000	      0.00000000	      0.00000000	      0.00000000	      0.00000000	      0.00000000	      0.00000000	      0.00000000	      0.00000000
      0.01600000	   -199.38456447	   1035.83606822	    -13.75922009	      2.22123800	      0.00000000	      1.05526912	      0.00000000	     36.40083942	      0.00000000	      0.00000000	      0.00000000	      0.00000000	      0.00000000	      0.00000000	      0.00000000	      0.00000000	      0.00000000	      0.00000000
      0.01700000	   -198.44639159	   1063.54760026	     -9.95602002	      2.21970232	      0.00000000	      1.05492978	      0.00000000	     34.09872044	      0.00000000	      0.00000000	      0.00000000	      0.00000000	      0.00000000	      0.00000000	      0.00000000	      0.00000000	      0.00000000	      0.00000000
      0.01800000	   -197.60903436	   1090.38427456	     -6.58396360	      2.21811156	      0.00000000	      1.05461678	      0.00000000	     31.95180304	      0.00000000	      0.00000000	      0.00000000	      0.00000000	      0.00000000	      0.00000000	      0.00000000	      0.00000000	      0.00000000	      0.00000000
      0.01900000	   -196.77167714	   1117.22094885	     -3.21190718	      2.21652080	      0.00000000	      1.05430379	      0.00000000	     29.80488563	      0.00000000	      0.00000000	      0.00000000	      0.00000000	      0.00000000	      0.00000000	      0.00000000	      0.00000000	      0.00000000	      0.00000000
      0.02000000	   -195.93431991	   1144.05762315	      0.16014924	      2.21493003	      0.00000000	      1.05399079	      0.00000000	     27.65796822	      0.00000000	      0.00000000	      0.00000000	      0.00000000	      0.00000000	      0.00000000	      0.00000000	      0.00000000	      0.00000000	      0.00000000
      0.02100000	   -195.22140819	   1169.38514204	      2.81628256	      2.21324312	      0.00000000	      1.05372272	      0.00000000	     25.76755134	      0.00000000	      0.00000000	      0.00000000	      0.00000000	      0.00000000	      0.00000000	      0.00000000	      0.00000000	      0.00000000	      0.00000000
      0.02200000	   -194.50849647	   1194.71266093	      5.47241587	      2.21155621	      0.00000000	      1.05345465	      0.00000000	     23.87713446	      0.00000000	      0.00000000	      0.00000000	      0.00000000	      0.00000000	      0.00000000	      0.00000000	      0.00000000	      0.00000000	      0.00000000
      0.02300000	   -193.79558476	   1220.04017982	      8.12854919	      2.20986930	      0.00000000	      1.05318658	      0.00000000	     21.98671757	      0.00000000	      0.00000000	      0.00000000	      0.00000000	      0.00000000	      0.00000000	      0.00000000	      0.00000000	      0.00000000	      0.00000000
      0.02400000	   -193.13677886	   1244.25464342	     10.27721818	      2.20811067	      0.00000000	      1.05295142	      0.00000000	     20.27691557	      0.00000000	      0.00000000	      0.00000000	      0.00000000	      0.00000000	      0.00000000	      0.00000000	      0.00000000	      0.00000000	      0.00000000
      0.02500000	   -192.50502587	   1267.91257938	     12.17215499	      2.20631618	      0.00000000	      1.05273273	      0.00000000	     18.65742100	      0.00000000	      0.00000000	      0.00000000	      0.00000000	      0.00000000	      0.00000000	      0.00000000	      0.00000000	      0.00000000	      0.00000000
      0.02600000	   -191.87327288	   1291.57051534	     14.06709181	      2.20452169	      0.00000000	      1.05251404	      0.00000000	     17.03792643	      0.00000000	      0.00000000	      0.00000000	      0.00000000	      0.00000000	      0.00000000	      0.00000000	      0.00000000	      0.00000000	      0.00000000
